<svg width="64" height="64" viewBox="0 0 64 64" xmlns="http://www.w3.org/2000/svg">
  <defs>
    <linearGradient id="advGrad" x1="0%" y1="0%" x2="100%" y2="100%">
      <stop offset="0%" style="stop-color:#673AB7;stop-opacity:1" />
      <stop offset="100%" style="stop-color:#4527A0;stop-opacity:1" />
    </linearGradient>
  </defs>
  <rect width="64" height="64" rx="8" fill="url(#advGrad)"/>
  <!-- Gear/cog for advanced features -->
  <circle cx="32" cy="32" r="12" fill="white" opacity="0.9"/>
  <circle cx="32" cy="32" r="6" fill="#673AB7" opacity="0.8"/>
  <!-- Gear teeth -->
  <rect x="30" y="16" width="4" height="6" fill="white" opacity="0.9"/>
  <rect x="30" y="42" width="4" height="6" fill="white" opacity="0.9"/>
  <rect x="16" y="30" width="6" height="4" fill="white" opacity="0.9"/>
  <rect x="42" y="30" width="6" height="4" fill="white" opacity="0.9"/>
  <rect x="22" y="20" width="4" height="4" fill="white" opacity="0.9" transform="rotate(45 24 22)"/>
  <rect x="38" y="20" width="4" height="4" fill="white" opacity="0.9" transform="rotate(-45 40 22)"/>
  <rect x="22" y="40" width="4" height="4" fill="white" opacity="0.9" transform="rotate(-45 24 42)"/>
  <rect x="38" y="40" width="4" height="4" fill="white" opacity="0.9" transform="rotate(45 40 42)"/>
  <!-- Advanced symbols -->
  <text x="32" y="36" font-family="Arial, sans-serif" font-size="8" font-weight="bold" text-anchor="middle" fill="white">λ</text>
  <!-- Decorative elements for generators, decorators -->
  <circle cx="12" cy="12" r="3" fill="#FFD54F" opacity="0.8"/>
  <text x="12" y="15" font-family="Arial, sans-serif" font-size="6" font-weight="bold" text-anchor="middle" fill="#673AB7">@</text>
  <circle cx="52" cy="12" r="3" fill="#4CAF50" opacity="0.8"/>
  <text x="52" y="15" font-family="Arial, sans-serif" font-size="6" font-weight="bold" text-anchor="middle" fill="white">*</text>
  <circle cx="12" cy="52" r="3" fill="#FF5722" opacity="0.8"/>
  <text x="12" y="55" font-family="Arial, sans-serif" font-size="6" font-weight="bold" text-anchor="middle" fill="white">→</text>
  <circle cx="52" cy="52" r="3" fill="#E91E63" opacity="0.8"/>
  <text x="52" y="55" font-family="Arial, sans-serif" font-size="6" font-weight="bold" text-anchor="middle" fill="white">{}</text>
</svg>