<svg width="64" height="64" viewBox="0 0 64 64" xmlns="http://www.w3.org/2000/svg">
  <defs>
    <linearGradient id="excGrad" x1="0%" y1="0%" x2="100%" y2="100%">
      <stop offset="0%" style="stop-color:#F44336;stop-opacity:1" />
      <stop offset="100%" style="stop-color:#C62828;stop-opacity:1" />
    </linearGradient>
  </defs>
  <rect width="64" height="64" rx="8" fill="url(#excGrad)"/>
  <!-- Shield shape for try/catch -->
  <path d="M32 8 L48 16 L48 36 C48 44 40 52 32 56 C24 52 16 44 16 36 L16 16 Z" fill="white" opacity="0.9"/>
  <!-- Try block -->
  <rect x="20" y="18" width="24" height="8" rx="1" fill="#F44336" opacity="0.8"/>
  <text x="32" y="24" font-family="Arial, sans-serif" font-size="6" font-weight="bold" text-anchor="middle" fill="white">try</text>
  <!-- Exception symbol -->
  <circle cx="32" cy="34" r="4" fill="#F44336" opacity="0.7"/>
  <text x="32" y="37" font-family="Arial, sans-serif" font-size="8" font-weight="bold" text-anchor="middle" fill="white">!</text>
  <!-- Catch block -->
  <rect x="20" y="42" width="24" height="8" rx="1" fill="#F44336" opacity="0.8"/>
  <text x="32" y="48" font-family="Arial, sans-serif" font-size="6" font-weight="bold" text-anchor="middle" fill="white">except</text>
  <!-- Warning triangles -->
  <polygon points="12,12 8,18 16,18" fill="#FFD54F" opacity="0.8"/>
  <text x="12" y="17" font-family="Arial, sans-serif" font-size="6" font-weight="bold" text-anchor="middle" fill="#F44336">!</text>
  <polygon points="52,12 48,18 56,18" fill="#FFD54F" opacity="0.8"/>
  <text x="52" y="17" font-family="Arial, sans-serif" font-size="6" font-weight="bold" text-anchor="middle" fill="#F44336">!</text>
</svg>