<svg width="64" height="64" viewBox="0 0 64 64" xmlns="http://www.w3.org/2000/svg">
  <defs>
    <linearGradient id="fileGrad" x1="0%" y1="0%" x2="100%" y2="100%">
      <stop offset="0%" style="stop-color:#607D8B;stop-opacity:1" />
      <stop offset="100%" style="stop-color:#37474F;stop-opacity:1" />
    </linearGradient>
  </defs>
  <rect width="64" height="64" rx="8" fill="url(#fileGrad)"/>
  <!-- File icon -->
  <path d="M16 8 L16 56 L48 56 L48 20 L36 8 Z" fill="white" opacity="0.9"/>
  <path d="M36 8 L36 20 L48 20" fill="#607D8B" opacity="0.7"/>
  <!-- File content lines -->
  <line x1="20" y1="26" x2="44" y2="26" stroke="#607D8B" stroke-width="1" opacity="0.6"/>
  <line x1="20" y1="30" x2="40" y2="30" stroke="#607D8B" stroke-width="1" opacity="0.6"/>
  <line x1="20" y1="34" x2="42" y2="34" stroke="#607D8B" stroke-width="1" opacity="0.6"/>
  <line x1="20" y1="38" x2="38" y2="38" stroke="#607D8B" stroke-width="1" opacity="0.6"/>
  <!-- Read/Write arrows -->
  <circle cx="12" cy="32" r="3" fill="#4CAF50" opacity="0.8"/>
  <polygon points="12,30 14,32 12,34 10,32" fill="white"/>
  <circle cx="52" cy="32" r="3" fill="#FF5722" opacity="0.8"/>
  <polygon points="52,30 54,32 52,34 50,32" fill="white"/>
  <!-- File operations text -->
  <text x="32" y="48" font-family="Arial, sans-serif" font-size="6" font-weight="bold" text-anchor="middle" fill="white">read/write</text>
</svg>